0
SECTION
2
HEADER
9
$ACADVER
1
AC1027
9
$HANDSEED
5
FFFFFF
9
$DWGCODEPAGE
3
UTF-8
9
$INSUNITS
70
6
9
$MEASUREMENT
70
1
9
$LUNITS
70
2
9
$LUPREC
70
3
9
$TILEMODE
70
1
9
$CTAB
1
Model
9
$EXTMIN
10
-2.000000
20
-2.000000
30
0.000000
9
$EXTMAX
10
15.000000
20
3.500000
30
0.000000
0
ENDSEC
0
SECTION
2
CLASSES
0
CLASS
1
LAYOUT
2
AcDbLayout
3
ObjectDBX Classes
90
0
91
0
280
0
281
0
0
ENDSEC
0
SECTION
2
TABLES
0
TABLE
2
LTYPE
5
8
330
0
100
AcDbSymbolTable
70
1
0
LTYPE
5
9
330
8
100
AcDbSymbolTableRecord
100
AcDbLinetypeTableRecord
2
CONTINUOUS
70
0
3
Solid line
72
65
73
0
40
0.000000
0
ENDTAB
0
TABLE
2
LAYER
5
A
330
0
100
AcDbSymbolTable
70
13
0
LAYER
5
B
330
A
100
AcDbSymbolTableRecord
100
AcDbLayerTableRecord
2
0
70
0
62
7
6
CONTINUOUS
370
15
0
LAYER
5
C
330
A
100
AcDbSymbolTableRecord
100
AcDbLayerTableRecord
2
FLOOR
70
0
62
8
6
CONTINUOUS
370
15
0
LAYER
5
D
330
A
100
AcDbSymbolTableRecord
100
AcDbLayerTableRecord
2
WALLS
70
0
62
5
6
CONTINUOUS
370
50
0
LAYER
5
E
330
A
100
AcDbSymbolTableRecord
100
AcDbLayerTableRecord
2
DOORS
70
0
62
30
6
CONTINUOUS
370
50
0
LAYER
5
F
330
A
100
AcDbSymbolTableRecord
100
AcDbLayerTableRecord
2
WINDOWS
70
0
62
4
6
CONTINUOUS
370
50
0
LAYER
5
10
330
A
100
AcDbSymbolTableRecord
100
AcDbLayerTableRecord
2
OPENINGS
70
0
62
6
6
CONTINUOUS
370
50
0
LAYER
5
11
330
A
100
AcDbSymbolTableRecord
100
AcDbLayerTableRecord
2
FURNITURE
70
0
62
9
6
CONTINUOUS
370
18
0
LAYER
5
12
330
A
100
AcDbSymbolTableRecord
100
AcDbLayerTableRecord
2
ELECTRICAL_EXISTING
70
0
62
3
6
CONTINUOUS
370
25
0
LAYER
5
13
330
A
100
AcDbSymbolTableRecord
100
AcDbLayerTableRecord
2
ELECTRICAL_PROPOSED
70
0
62
30
6
CONTINUOUS
370
25
0
LAYER
5
14
330
A
100
AcDbSymbolTableRecord
100
AcDbLayerTableRecord
2
CEILING_LIGHTING
70
0
62
2
6
CONTINUOUS
370
25
0
LAYER
5
15
330
A
100
AcDbSymbolTableRecord
100
AcDbLayerTableRecord
2
DIM_WALLS
70
0
62
5
6
CONTINUOUS
370
13
0
LAYER
5
16
330
A
100
AcDbSymbolTableRecord
100
AcDbLayerTableRecord
2
DIM_ELECTRICAL
70
0
62
6
6
CONTINUOUS
370
13
0
LAYER
5
17
330
A
100
AcDbSymbolTableRecord
100
AcDbLayerTableRecord
2
ANNOTATIONS
70
0
62
7
6
CONTINUOUS
370
13
0
ENDTAB
0
TABLE
2
STYLE
5
18
330
0
100
AcDbSymbolTable
70
1
0
STYLE
5
19
330
18
100
AcDbSymbolTableRecord
100
AcDbTextStyleTableRecord
2
STANDARD
70
0
40
0.000000
41
1.000000
50
0.000000
71
0
42
0.200000
3
Arial.ttf
4

0
ENDTAB
0
TABLE
2
BLOCK_RECORD
5
3
330
0
100
AcDbSymbolTable
70
1
0
BLOCK_RECORD
5
4
330
3
100
AcDbSymbolTableRecord
100
AcDbBlockTableRecord
2
*Model_Space
340
5
70
6
280
1
281
0
0
ENDTAB
0
ENDSEC
0
SECTION
2
BLOCKS
0
BLOCK
5
6
330
4
100
AcDbEntity
8
0
100
AcDbBlockBegin
2
*Model_Space
70
0
10
0.000000
20
0.000000
30
0.000000
3
*Model_Space
1

0
ENDBLK
5
7
330
4
100
AcDbEntity
8
0
100
AcDbBlockEnd
0
ENDSEC
0
SECTION
2
ENTITIES
0
LWPOLYLINE
5
100000
330
4
100
AcDbEntity
8
FLOOR
100
AcDbPolyline
90
4
70
1
10
0.000000
20
0.000000
10
4.000000
20
0.000000
10
4.000000
20
-3.000000
10
0.000000
20
-3.000000
0
LWPOLYLINE
5
100001
330
4
100
AcDbEntity
8
FURNITURE
100
AcDbPolyline
90
4
70
1
10
0.000000
20
0.000000
10
1.000000
20
0.000000
10
1.000000
20
-0.600000
10
0.000000
20
-0.600000
0
TEXT
5
100002
330
4
100
AcDbEntity
8
ANNOTATIONS
100
AcDbText
10
1.000000
20
-1.000000
30
0.000000
40
0.120000
1
Desk
50
0.000000
7
STANDARD
72
1
73
2
11
1.000000
21
-1.000000
31
0.000000
0
LINE
5
100003
330
4
100
AcDbEntity
8
WALLS
100
AcDbLine
10
0.000000
20
0.000000
30
0.000000
11
4.000000
21
0.000000
31
0.000000
0
LINE
5
100004
330
4
100
AcDbEntity
8
DIM_WALLS
100
AcDbLine
10
0.000000
20
0.000000
30
0.000000
11
0.000000
21
0.160000
31
0.000000
0
LINE
5
100005
330
4
100
AcDbEntity
8
DIM_WALLS
100
AcDbLine
10
4.000000
20
0.000000
30
0.000000
11
4.000000
21
0.160000
31
0.000000
0
LINE
5
100006
330
4
100
AcDbEntity
8
DIM_WALLS
100
AcDbLine
10
0.000000
20
0.160000
30
0.000000
11
4.000000
21
0.160000
31
0.000000
0
LINE
5
100007
330
4
100
AcDbEntity
8
DIM_WALLS
100
AcDbLine
10
-0.045000
20
0.115000
30
0.000000
11
0.045000
21
0.205000
31
0.000000
0
LINE
5
100008
330
4
100
AcDbEntity
8
DIM_WALLS
100
AcDbLine
10
3.955000
20
0.115000
30
0.000000
11
4.045000
21
0.205000
31
0.000000
0
TEXT
5
100009
330
4
100
AcDbEntity
8
DIM_WALLS
100
AcDbText
10
2.000000
20
0.200000
30
0.000000
40
0.090000
1
4.00 m
50
0.000000
7
STANDARD
72
1
73
2
11
2.000000
21
0.200000
31
0.000000
0
TEXT
5
10000A
330
4
100
AcDbEntity
8
ANNOTATIONS
100
AcDbText
10
2.000000
20
-0.100000
30
0.000000
40
0.090000
1
W1
50
0.000000
7
STANDARD
72
1
73
2
11
2.000000
21
-0.100000
31
0.000000
0
LINE
5
10000B
330
4
100
AcDbEntity
8
DOORS
100
AcDbLine
10
0.200000
20
0.000000
30
0.000000
11
1.200000
21
0.000000
31
0.000000
0
TEXT
5
10000C
330
4
100
AcDbEntity
8
ANNOTATIONS
100
AcDbText
10
0.700000
20
0.120000
30
0.000000
40
0.100000
1
OPEN 1.00m
50
0.000000
7
STANDARD
72
1
73
2
11
0.700000
21
0.120000
31
0.000000
0
CIRCLE
5
10000D
330
4
100
AcDbEntity
8
ELECTRICAL_EXISTING
100
AcDbCircle
10
1.000000
20
0.000000
30
0.000000
40
0.045000
0
TEXT
5
10000E
330
4
100
AcDbEntity
8
ELECTRICAL_EXISTING
100
AcDbText
10
1.000000
20
0.100000
30
0.000000
40
0.080000
1
OUT
50
0.000000
7
STANDARD
72
1
73
2
11
1.000000
21
0.100000
31
0.000000
0
LINE
5
10000F
330
4
100
AcDbEntity
8
DIM_ELECTRICAL
100
AcDbLine
10
0.000000
20
0.000000
30
0.000000
11
0.000000
21
0.280000
31
0.000000
0
LINE
5
100010
330
4
100
AcDbEntity
8
DIM_ELECTRICAL
100
AcDbLine
10
1.000000
20
0.000000
30
0.000000
11
1.000000
21
0.280000
31
0.000000
0
LINE
5
100011
330
4
100
AcDbEntity
8
DIM_ELECTRICAL
100
AcDbLine
10
0.000000
20
0.280000
30
0.000000
11
1.000000
21
0.280000
31
0.000000
0
LINE
5
100012
330
4
100
AcDbEntity
8
DIM_ELECTRICAL
100
AcDbLine
10
-0.045000
20
0.235000
30
0.000000
11
0.045000
21
0.325000
31
0.000000
0
LINE
5
100013
330
4
100
AcDbEntity
8
DIM_ELECTRICAL
100
AcDbLine
10
0.955000
20
0.235000
30
0.000000
11
1.045000
21
0.325000
31
0.000000
0
TEXT
5
100014
330
4
100
AcDbEntity
8
DIM_ELECTRICAL
100
AcDbText
10
0.500000
20
0.320000
30
0.000000
40
0.090000
1
2.00 m
50
0.000000
7
STANDARD
72
1
73
2
11
0.500000
21
0.320000
31
0.000000
0
LINE
5
100015
330
4
100
AcDbEntity
8
DIM_ELECTRICAL
100
AcDbLine
10
1.000000
20
0.000000
30
0.000000
11
1.000000
21
0.400000
31
0.000000
0
LINE
5
100016
330
4
100
AcDbEntity
8
DIM_ELECTRICAL
100
AcDbLine
10
4.000000
20
0.000000
30
0.000000
11
4.000000
21
0.400000
31
0.000000
0
LINE
5
100017
330
4
100
AcDbEntity
8
DIM_ELECTRICAL
100
AcDbLine
10
1.000000
20
0.400000
30
0.000000
11
4.000000
21
0.400000
31
0.000000
0
LINE
5
100018
330
4
100
AcDbEntity
8
DIM_ELECTRICAL
100
AcDbLine
10
0.955000
20
0.355000
30
0.000000
11
1.045000
21
0.445000
31
0.000000
0
LINE
5
100019
330
4
100
AcDbEntity
8
DIM_ELECTRICAL
100
AcDbLine
10
3.955000
20
0.355000
30
0.000000
11
4.045000
21
0.445000
31
0.000000
0
TEXT
5
10001A
330
4
100
AcDbEntity
8
DIM_ELECTRICAL
100
AcDbText
10
2.500000
20
0.440000
30
0.000000
40
0.090000
1
2.00 m
50
0.000000
7
STANDARD
72
1
73
2
11
2.500000
21
0.440000
31
0.000000
0
CIRCLE
5
10001B
330
4
100
AcDbEntity
8
CEILING_LIGHTING
100
AcDbCircle
10
2.000000
20
-1.500000
30
0.000000
40
0.100000
0
LINE
5
10001C
330
4
100
AcDbEntity
8
CEILING_LIGHTING
100
AcDbLine
10
1.900000
20
-1.500000
30
0.000000
11
2.100000
21
-1.500000
31
0.000000
0
LINE
5
10001D
330
4
100
AcDbEntity
8
CEILING_LIGHTING
100
AcDbLine
10
2.000000
20
-1.600000
30
0.000000
11
2.000000
21
-1.400000
31
0.000000
0
TEXT
5
10001E
330
4
100
AcDbEntity
8
ANNOTATIONS
100
AcDbText
10
0.000000
20
0.320000
30
0.000000
40
0.160000
1
Test Room
50
0.000000
7
STANDARD
72
0
73
2
11
0.000000
21
0.320000
31
0.000000
0
TEXT
5
10001F
330
4
100
AcDbEntity
8
ANNOTATIONS
100
AcDbText
10
0.000000
20
0.140000
30
0.000000
40
0.080000
1
Floor 1
50
0.000000
7
STANDARD
72
0
73
2
11
0.000000
21
0.140000
31
0.000000
0
LWPOLYLINE
5
100020
330
4
100
AcDbEntity
8
FLOOR
100
AcDbPolyline
90
4
70
1
10
6.000000
20
0.000000
10
10.000000
20
0.000000
10
10.000000
20
-3.000000
10
6.000000
20
-3.000000
0
LWPOLYLINE
5
100021
330
4
100
AcDbEntity
8
FURNITURE
100
AcDbPolyline
90
4
70
1
10
6.000000
20
0.000000
10
7.000000
20
0.000000
10
7.000000
20
-0.600000
10
6.000000
20
-0.600000
0
TEXT
5
100022
330
4
100
AcDbEntity
8
ANNOTATIONS
100
AcDbText
10
7.000000
20
-1.000000
30
0.000000
40
0.120000
1
Desk
50
0.000000
7
STANDARD
72
1
73
2
11
7.000000
21
-1.000000
31
0.000000
0
LINE
5
100023
330
4
100
AcDbEntity
8
WALLS
100
AcDbLine
10
6.000000
20
0.000000
30
0.000000
11
10.000000
21
0.000000
31
0.000000
0
LINE
5
100024
330
4
100
AcDbEntity
8
DIM_WALLS
100
AcDbLine
10
6.000000
20
0.000000
30
0.000000
11
6.000000
21
0.160000
31
0.000000
0
LINE
5
100025
330
4
100
AcDbEntity
8
DIM_WALLS
100
AcDbLine
10
10.000000
20
0.000000
30
0.000000
11
10.000000
21
0.160000
31
0.000000
0
LINE
5
100026
330
4
100
AcDbEntity
8
DIM_WALLS
100
AcDbLine
10
6.000000
20
0.160000
30
0.000000
11
10.000000
21
0.160000
31
0.000000
0
LINE
5
100027
330
4
100
AcDbEntity
8
DIM_WALLS
100
AcDbLine
10
5.955000
20
0.115000
30
0.000000
11
6.045000
21
0.205000
31
0.000000
0
LINE
5
100028
330
4
100
AcDbEntity
8
DIM_WALLS
100
AcDbLine
10
9.955000
20
0.115000
30
0.000000
11
10.045000
21
0.205000
31
0.000000
0
TEXT
5
100029
330
4
100
AcDbEntity
8
DIM_WALLS
100
AcDbText
10
8.000000
20
0.200000
30
0.000000
40
0.090000
1
4.00 m
50
0.000000
7
STANDARD
72
1
73
2
11
8.000000
21
0.200000
31
0.000000
0
TEXT
5
10002A
330
4
100
AcDbEntity
8
ANNOTATIONS
100
AcDbText
10
8.000000
20
-0.100000
30
0.000000
40
0.090000
1
W1
50
0.000000
7
STANDARD
72
1
73
2
11
8.000000
21
-0.100000
31
0.000000
0
LINE
5
10002B
330
4
100
AcDbEntity
8
DOORS
100
AcDbLine
10
6.200000
20
0.000000
30
0.000000
11
7.200000
21
0.000000
31
0.000000
0
TEXT
5
10002C
330
4
100
AcDbEntity
8
ANNOTATIONS
100
AcDbText
10
6.700000
20
0.120000
30
0.000000
40
0.100000
1
OPEN 1.00m
50
0.000000
7
STANDARD
72
1
73
2
11
6.700000
21
0.120000
31
0.000000
0
CIRCLE
5
10002D
330
4
100
AcDbEntity
8
ELECTRICAL_EXISTING
100
AcDbCircle
10
7.000000
20
0.000000
30
0.000000
40
0.045000
0
TEXT
5
10002E
330
4
100
AcDbEntity
8
ELECTRICAL_EXISTING
100
AcDbText
10
7.000000
20
0.100000
30
0.000000
40
0.080000
1
OUT
50
0.000000
7
STANDARD
72
1
73
2
11
7.000000
21
0.100000
31
0.000000
0
LINE
5
10002F
330
4
100
AcDbEntity
8
DIM_ELECTRICAL
100
AcDbLine
10
6.000000
20
0.000000
30
0.000000
11
6.000000
21
0.280000
31
0.000000
0
LINE
5
100030
330
4
100
AcDbEntity
8
DIM_ELECTRICAL
100
AcDbLine
10
7.000000
20
0.000000
30
0.000000
11
7.000000
21
0.280000
31
0.000000
0
LINE
5
100031
330
4
100
AcDbEntity
8
DIM_ELECTRICAL
100
AcDbLine
10
6.000000
20
0.280000
30
0.000000
11
7.000000
21
0.280000
31
0.000000
0
LINE
5
100032
330
4
100
AcDbEntity
8
DIM_ELECTRICAL
100
AcDbLine
10
5.955000
20
0.235000
30
0.000000
11
6.045000
21
0.325000
31
0.000000
0
LINE
5
100033
330
4
100
AcDbEntity
8
DIM_ELECTRICAL
100
AcDbLine
10
6.955000
20
0.235000
30
0.000000
11
7.045000
21
0.325000
31
0.000000
0
TEXT
5
100034
330
4
100
AcDbEntity
8
DIM_ELECTRICAL
100
AcDbText
10
6.500000
20
0.320000
30
0.000000
40
0.090000
1
2.00 m
50
0.000000
7
STANDARD
72
1
73
2
11
6.500000
21
0.320000
31
0.000000
0
LINE
5
100035
330
4
100
AcDbEntity
8
DIM_ELECTRICAL
100
AcDbLine
10
7.000000
20
0.000000
30
0.000000
11
7.000000
21
0.400000
31
0.000000
0
LINE
5
100036
330
4
100
AcDbEntity
8
DIM_ELECTRICAL
100
AcDbLine
10
10.000000
20
0.000000
30
0.000000
11
10.000000
21
0.400000
31
0.000000
0
LINE
5
100037
330
4
100
AcDbEntity
8
DIM_ELECTRICAL
100
AcDbLine
10
7.000000
20
0.400000
30
0.000000
11
10.000000
21
0.400000
31
0.000000
0
LINE
5
100038
330
4
100
AcDbEntity
8
DIM_ELECTRICAL
100
AcDbLine
10
6.955000
20
0.355000
30
0.000000
11
7.045000
21
0.445000
31
0.000000
0
LINE
5
100039
330
4
100
AcDbEntity
8
DIM_ELECTRICAL
100
AcDbLine
10
9.955000
20
0.355000
30
0.000000
11
10.045000
21
0.445000
31
0.000000
0
TEXT
5
10003A
330
4
100
AcDbEntity
8
DIM_ELECTRICAL
100
AcDbText
10
8.500000
20
0.440000
30
0.000000
40
0.090000
1
2.00 m
50
0.000000
7
STANDARD
72
1
73
2
11
8.500000
21
0.440000
31
0.000000
0
CIRCLE
5
10003B
330
4
100
AcDbEntity
8
CEILING_LIGHTING
100
AcDbCircle
10
8.000000
20
-1.500000
30
0.000000
40
0.100000
0
LINE
5
10003C
330
4
100
AcDbEntity
8
CEILING_LIGHTING
100
AcDbLine
10
7.900000
20
-1.500000
30
0.000000
11
8.100000
21
-1.500000
31
0.000000
0
LINE
5
10003D
330
4
100
AcDbEntity
8
CEILING_LIGHTING
100
AcDbLine
10
8.000000
20
-1.600000
30
0.000000
11
8.000000
21
-1.400000
31
0.000000
0
TEXT
5
10003E
330
4
100
AcDbEntity
8
ANNOTATIONS
100
AcDbText
10
6.000000
20
0.320000
30
0.000000
40
0.160000
1
Test Room
50
0.000000
7
STANDARD
72
0
73
2
11
6.000000
21
0.320000
31
0.000000
0
TEXT
5
10003F
330
4
100
AcDbEntity
8
ANNOTATIONS
100
AcDbText
10
6.000000
20
0.140000
30
0.000000
40
0.080000
1
Floor 1
50
0.000000
7
STANDARD
72
0
73
2
11
6.000000
21
0.140000
31
0.000000
0
TEXT
5
100040
330
4
100
AcDbEntity
8
ANNOTATIONS
100
AcDbText
10
0.000000
20
1.920000
30
0.000000
40
0.220000
1
3Essam
50
0.000000
7
STANDARD
72
0
73
2
11
0.000000
21
1.920000
31
0.000000
0
TEXT
5
100041
330
4
100
AcDbEntity
8
ANNOTATIONS
100
AcDbText
10
0.000000
20
1.650000
30
0.000000
40
0.090000
1
Test Project
50
0.000000
7
STANDARD
72
0
73
2
11
0.000000
21
1.650000
31
0.000000
0
TEXT
5
100042
330
4
100
AcDbEntity
8
ANNOTATIONS
100
AcDbText
10
0.000000
20
1.420000
30
0.000000
40
0.140000
1
validated-combined
50
0.000000
7
STANDARD
72
0
73
2
11
0.000000
21
1.420000
31
0.000000
0
TEXT
5
100043
330
4
100
AcDbEntity
8
ANNOTATIONS
100
AcDbText
10
10.000000
20
-0.550000
30
0.000000
40
0.080000
1
Export
50
0.000000
7
STANDARD
72
2
73
2
11
10.000000
21
-0.550000
31
0.000000
0
ENDSEC
0
SECTION
2
OBJECTS
0
DICTIONARY
5
1
330
0
100
AcDbDictionary
281
1
3
ACAD_LAYOUT
350
2
0
DICTIONARY
5
2
330
1
100
AcDbDictionary
281
1
3
Model
350
5
0
LAYOUT
5
5
330
2
100
AcDbPlotSettings
1

2

4
A3
6

40
7.500000
41
20.000000
42
7.500000
43
20.000000
44
420.000000
45
297.000000
46
0.000000
47
0.000000
48
0.000000
49
0.000000
140
0.000000
141
0.000000
142
1.000000
143
1.000000
70
1024
72
1
73
0
74
5
7

75
16
76
0
77
2
78
300
147
1.000000
148
0.000000
149
0.000000
100
AcDbLayout
1
Model
70
1
71
0
10
0.000000
20
0.000000
11
420.000000
21
297.000000
12
0.000000
22
0.000000
32
0.000000
14
100000000000000000000.000000
24
100000000000000000000.000000
34
100000000000000000000.000000
15
-100000000000000000000.000000
25
-100000000000000000000.000000
35
-100000000000000000000.000000
146
0.000000
13
0.000000
23
0.000000
33
0.000000
16
1.000000
26
0.000000
36
0.000000
17
0.000000
27
1.000000
37
0.000000
76
1
330
4
0
ENDSEC
0
EOF
